Coordinates
version=1
nRows=15
nColumns=34
inDegrees=no

Units are S.I. units (second, meters, Newtons, ...)
If the header above contains a line with 'inDegrees', this indicates whether rotational values are in degrees (yes) or radians (no).

endheader
time	pelvis_tilt	pelvis_list	pelvis_rotation	pelvis_tx	pelvis_ty	pelvis_tz	hip_flexion_r	hip_adduction_r	hip_rotation_r	knee_angle_r	ankle_angle_r	subtalar_angle_r	mtp_angle_r	hip_flexion_l	hip_adduction_l	hip_rotation_l	knee_angle_l	ankle_angle_l	subtalar_angle_l	mtp_angle_l	lumbar_extension	lumbar_bending	lumbar_rotation	arm_flex_r	arm_add_r	arm_rot_r	elbow_flex_r	pro_sup_r	arm_flex_l	arm_add_l	arm_rot_l	elbow_flex_l	pro_sup_l
1.38	0.111524	-0.0116201	-0.149099	1.13297	1.16912	-0.214272	0.166902	0.02377	-0.016675	0.152497	0.0498838	-0.0312601	-0.0201262	-0.316154	0.0736372	-0.224023	-0.000490184	0.0163069	0.152943	-0.0552603	-0.505822	-0.288015	-0.0654019	-0.202717	-0.155376	-0.172167	0.745681	2.01789	0.135441	-0.333479	-0.0967575	0.848516	1.95898
1.39	0.109189	-0.0104934	-0.148597	1.14095	1.16761	-0.21458	0.170688	0.0289397	-0.0256712	0.123504	0.0501239	-0.00776827	-0.020157	-0.32146	0.0751118	-0.227646	-0.000479125	0.0208204	0.162038	-0.0552001	-0.50538	-0.28326	-0.0637154	-0.201368	-0.155575	-0.174937	0.747467	2.02483	0.132348	-0.333093	-0.0934238	0.849856	1.96147
1.4	0.107121	-0.00946993	-0.148326	1.14896	1.16608	-0.214871	0.175031	0.0342628	-0.0348002	0.098407	0.0500827	0.0149865	-0.0201877	-0.326871	0.0764851	-0.231413	-0.000592387	0.0252088	0.17106	-0.05514	-0.505334	-0.278346	-0.0617234	-0.199853	-0.155874	-0.177638	0.749206	2.03223	0.129033	-0.332466	-0.0903806	0.850858	1.96409
1.41	0.105319	-0.00852225	-0.148316	1.15702	1.16454	-0.215151	0.180145	0.0395879	-0.0441396	0.0779258	0.0503157	0.0374201	-0.0202184	-0.332437	0.0778517	-0.235243	-0.000851155	0.0294048	0.179843	-0.0550799	-0.505651	-0.273289	-0.059416	-0.198154	-0.156304	-0.180204	0.750919	2.03992	0.125534	-0.331566	-0.0876169	0.851439	1.96666
1.42	0.103766	-0.0076015	-0.14855	1.16515	1.16298	-0.215431	0.186136	0.0447531	-0.0537243	0.0624563	0.0513561	0.0597812	-0.0202491	-0.338216	0.0793212	-0.238969	-0.00124695	0.0333428	0.188169	-0.0550199	-0.506214	-0.268108	-0.0568192	-0.196283	-0.156888	-0.182573	0.752626	2.04768	0.121876	-0.33037	-0.0851081	0.851514	1.96892
1.43	0.102401	-0.00663028	-0.148959	1.17339	1.16141	-0.215721	0.192908	0.0496022	-0.0633975	0.0519294	0.0535876	0.0819753	-0.0202798	-0.344256	0.0809943	-0.242348	-0.00171919	0.0369578	0.195783	-0.05496	-0.50686	-0.262811	-0.0540007	-0.194285	-0.157632	-0.184688	0.754341	2.05519	0.118064	-0.328865	-0.0828151	0.851006	1.97055
1.44	0.101125	-0.00552532	-0.149413	1.1818	1.15983	-0.216029	0.200124	0.0539921	-0.0727166	0.0457921	0.0571506	0.103471	-0.0203105	-0.350555	0.082941	-0.245105	-0.00213394	0.0402006	0.202428	-0.0549001	-0.507416	-0.257409	-0.0510677	-0.192239	-0.158525	-0.18652	0.756076	2.06208	0.114082	-0.327047	-0.0806854	0.849851	1.97123
1.45	0.0998573	-0.00420851	-0.149733	1.19042	1.15825	-0.216363	0.207265	0.0578016	-0.0810039	0.0431432	0.0619349	0.123393	-0.0203411	-0.357032	0.085178	-0.247026	-0.002276	0.0430634	0.207946	-0.0548403	-0.50774	-0.251903	-0.0481577	-0.190245	-0.159543	-0.188075	0.757838	2.06803	0.109904	-0.324921	-0.0786579	0.84801	1.97075
1.46	0.0985546	-0.00262044	-0.149707	1.19931	1.15667	-0.216732	0.213723	0.0609385	-0.0874715	0.0429219	0.0676098	0.140697	-0.0203718	-0.363549	0.0876564	-0.248014	-0.00185019	0.0455872	0.212334	-0.0547806	-0.50774	-0.246271	-0.0454245	-0.188402	-0.160653	-0.189402	0.759628	2.07284	0.105496	-0.322497	-0.0766691	0.845466	1.96907
1.47	0.0972202	-0.000737538	-0.149108	1.20848	1.1551	-0.217145	0.21889	0.0633497	-0.0913693	0.0440829	0.0736637	0.154356	-0.0204024	-0.369935	0.0902546	-0.248112	-0.000498994	0.0478507	0.215764	-0.0547209	-0.507385	-0.240454	-0.0430221	-0.186814	-0.161814	-0.190597	0.761428	2.07648	0.100818	-0.319789	-0.0746589	0.842225	1.96634
1.48	0.095904	0.00141223	-0.147703	1.21798	1.15355	-0.217612	0.22223	0.06503	-0.0921204	0.0457268	0.0794357	0.16352	-0.020433	-0.376037	0.0927753	-0.247497	0.00216106	0.0499465	0.218563	-0.0546612	-0.506687	-0.234351	-0.0410891	-0.185585	-0.162984	-0.191789	0.763202	2.07906	0.0958165	-0.31681	-0.0725739	0.838308	1.9629
1.49	0.0946883	0.00374098	-0.145282	1.22782	1.15204	-0.218142	0.223355	0.0660312	-0.0894349	0.0471813	0.0841638	0.16761	-0.0204637	-0.381743	0.0949578	-0.246445	0.00648743	0.0519555	0.221164	-0.0546017	-0.505692	-0.227814	-0.0397295	-0.184813	-0.164119	-0.193127	0.764898	2.08083	0.0904383	-0.313573	-0.0703635	0.833748	1.95914
1.5	0.0936615	0.00609748	-0.141681	1.238	1.1506	-0.218737	0.222087	0.0664633	-0.0833893	0.0480398	0.0870549	0.166367	-0.0204943	-0.386983	0.0965029	-0.245289	0.0127573	0.0539205	0.224029	-0.0545421	-0.504472	-0.220659	-0.0389921	-0.184559	-0.165183	-0.194759	0.766459	2.08205	0.0846482	-0.310087	-0.0679772	0.828577	1.95545
1.51	0.0928973	0.00828522	-0.136819	1.2485	1.14925	-0.219405	0.218499	0.0664927	-0.0744622	0.0481721	0.0873744	0.159884	-0.0205249	-0.391721	0.0970998	-0.244371	0.0211364	0.0558244	0.22757	-0.0544827	-0.50311	-0.21268	-0.0388519	-0.18483	-0.166152	-0.196817	0.76783	2.08294	0.0784494	-0.306355	-0.0653696	0.822824	1.95215
1.52	0.0924388	0.0100741	-0.13071	1.2593	1.14802	-0.220147	0.212914	0.0663239	-0.0635245	0.0477178	0.0845577	0.148637	-0.0205555	-0.395926	0.0964501	-0.244003	0.0317017	0.0575782	0.232077	-0.0544233	-0.501691	-0.203673	-0.0392056	-0.185566	-0.167021	-0.199399	0.768965	2.08363	0.07189	-0.302372	-0.0625145	0.816507	1.94946
